<mxfile host="app.diagrams.net" agent="Mozilla/5.0 (Windows NT 10.0; Win64; x64) AppleWebKit/537.36 (KHTML, like Gecko) Chrome/132.0.0.0 Safari/537.36" version="26.0.3">
  <diagram name="Страница — 1" id="5gHI1iLkNdxSaruiZyOT">
    <mxGraphModel dx="1878" dy="706" grid="1" gridSize="10" guides="1" tooltips="1" connect="1" arrows="1" fold="1" page="1" pageScale="1" pageWidth="827" pageHeight="1169" math="0" shadow="0">
      <root>
        <mxCell id="0" />
        <mxCell id="1" parent="0" />
        <mxCell id="IQzZQ-pKotI2dQeu9OWQ-2" value="" style="rounded=0;whiteSpace=wrap;html=1;" vertex="1" parent="1">
          <mxGeometry x="220" y="110" width="540" height="1080" as="geometry" />
        </mxCell>
        <mxCell id="IQzZQ-pKotI2dQeu9OWQ-3" style="rounded=0;orthogonalLoop=1;jettySize=auto;html=1;exitX=1;exitY=0.5;exitDx=0;exitDy=0;entryX=-0.02;entryY=0.483;entryDx=0;entryDy=0;endArrow=none;endFill=0;dashed=1;startArrow=open;startFill=0;entryPerimeter=0;" edge="1" parent="1" source="IQzZQ-pKotI2dQeu9OWQ-54" target="IQzZQ-pKotI2dQeu9OWQ-60">
          <mxGeometry relative="1" as="geometry">
            <mxPoint x="770" y="529.4100000000001" as="sourcePoint" />
            <mxPoint x="859.9999999999918" y="529.4100000000001" as="targetPoint" />
          </mxGeometry>
        </mxCell>
        <mxCell id="IQzZQ-pKotI2dQeu9OWQ-4" value="extend" style="edgeLabel;html=1;align=center;verticalAlign=middle;resizable=0;points=[];fontFamily=Helvetica;fontSize=11;fontColor=default;labelBackgroundColor=default;" vertex="1" connectable="0" parent="IQzZQ-pKotI2dQeu9OWQ-3">
          <mxGeometry x="0.0209" y="1" relative="1" as="geometry">
            <mxPoint x="-2" y="1" as="offset" />
          </mxGeometry>
        </mxCell>
        <mxCell id="IQzZQ-pKotI2dQeu9OWQ-5" style="rounded=0;orthogonalLoop=1;jettySize=auto;html=1;exitX=1;exitY=0.3333333333333333;exitDx=0;exitDy=0;exitPerimeter=0;entryX=0;entryY=0.5;entryDx=0;entryDy=0;endArrow=none;endFill=0;" edge="1" parent="1" source="IQzZQ-pKotI2dQeu9OWQ-6" target="IQzZQ-pKotI2dQeu9OWQ-23">
          <mxGeometry relative="1" as="geometry" />
        </mxCell>
        <mxCell id="IQzZQ-pKotI2dQeu9OWQ-6" value="Гость" style="shape=umlActor;verticalLabelPosition=bottom;verticalAlign=top;html=1;" vertex="1" parent="1">
          <mxGeometry x="150" y="210" width="30" height="60" as="geometry" />
        </mxCell>
        <mxCell id="IQzZQ-pKotI2dQeu9OWQ-7" style="edgeStyle=none;shape=connector;rounded=0;orthogonalLoop=1;jettySize=auto;html=1;exitX=1;exitY=0.3333333333333333;exitDx=0;exitDy=0;exitPerimeter=0;entryX=0;entryY=0.5;entryDx=0;entryDy=0;strokeColor=default;align=center;verticalAlign=middle;fontFamily=Helvetica;fontSize=11;fontColor=default;labelBackgroundColor=default;endArrow=none;endFill=0;" edge="1" parent="1" source="IQzZQ-pKotI2dQeu9OWQ-11" target="IQzZQ-pKotI2dQeu9OWQ-39">
          <mxGeometry relative="1" as="geometry" />
        </mxCell>
        <mxCell id="IQzZQ-pKotI2dQeu9OWQ-8" style="rounded=0;orthogonalLoop=1;jettySize=auto;html=1;exitX=1;exitY=0.3333333333333333;exitDx=0;exitDy=0;exitPerimeter=0;entryX=0;entryY=0.5;entryDx=0;entryDy=0;endArrow=none;endFill=0;" edge="1" parent="1" source="IQzZQ-pKotI2dQeu9OWQ-11" target="IQzZQ-pKotI2dQeu9OWQ-42">
          <mxGeometry relative="1" as="geometry" />
        </mxCell>
        <mxCell id="IQzZQ-pKotI2dQeu9OWQ-9" value="Администратор" style="shape=umlActor;verticalLabelPosition=bottom;verticalAlign=top;html=1;" vertex="1" parent="1">
          <mxGeometry x="150" y="770" width="30" height="60" as="geometry" />
        </mxCell>
        <mxCell id="IQzZQ-pKotI2dQeu9OWQ-10" style="edgeStyle=none;shape=connector;rounded=0;orthogonalLoop=1;jettySize=auto;html=1;exitX=1;exitY=0.3333333333333333;exitDx=0;exitDy=0;exitPerimeter=0;entryX=0;entryY=0.5;entryDx=0;entryDy=0;strokeColor=default;align=center;verticalAlign=middle;fontFamily=Helvetica;fontSize=11;fontColor=default;labelBackgroundColor=default;endArrow=none;endFill=0;" edge="1" parent="1" source="IQzZQ-pKotI2dQeu9OWQ-11" target="IQzZQ-pKotI2dQeu9OWQ-54">
          <mxGeometry relative="1" as="geometry" />
        </mxCell>
        <mxCell id="IQzZQ-pKotI2dQeu9OWQ-11" value="&amp;nbsp; &amp;nbsp; Пользователь" style="shape=umlActor;verticalLabelPosition=bottom;verticalAlign=top;html=1;" vertex="1" parent="1">
          <mxGeometry x="150" y="420" width="30" height="60" as="geometry" />
        </mxCell>
        <mxCell id="IQzZQ-pKotI2dQeu9OWQ-12" style="edgeStyle=none;shape=connector;rounded=0;orthogonalLoop=1;jettySize=auto;html=1;exitX=0;exitY=0.5;exitDx=0;exitDy=0;strokeColor=default;align=center;verticalAlign=middle;fontFamily=Helvetica;fontSize=11;fontColor=default;labelBackgroundColor=default;endArrow=open;endFill=0;dashed=1;entryX=0.933;entryY=0.229;entryDx=0;entryDy=0;entryPerimeter=0;" edge="1" parent="1" source="IQzZQ-pKotI2dQeu9OWQ-57" target="IQzZQ-pKotI2dQeu9OWQ-54">
          <mxGeometry relative="1" as="geometry">
            <mxPoint x="660" y="410.1428571428571" as="targetPoint" />
          </mxGeometry>
        </mxCell>
        <mxCell id="IQzZQ-pKotI2dQeu9OWQ-13" value="extend" style="edgeLabel;html=1;align=center;verticalAlign=middle;resizable=0;points=[];" vertex="1" connectable="0" parent="IQzZQ-pKotI2dQeu9OWQ-12">
          <mxGeometry x="0.052" y="-1" relative="1" as="geometry">
            <mxPoint as="offset" />
          </mxGeometry>
        </mxCell>
        <mxCell id="IQzZQ-pKotI2dQeu9OWQ-16" style="rounded=0;orthogonalLoop=1;jettySize=auto;html=1;exitX=0;exitY=0.5;exitDx=0;exitDy=0;endArrow=none;endFill=0;entryX=1;entryY=0.3333333333333333;entryDx=0;entryDy=0;entryPerimeter=0;" edge="1" parent="1" source="IQzZQ-pKotI2dQeu9OWQ-20" target="IQzZQ-pKotI2dQeu9OWQ-6">
          <mxGeometry relative="1" as="geometry">
            <mxPoint x="20" y="380" as="targetPoint" />
          </mxGeometry>
        </mxCell>
        <mxCell id="IQzZQ-pKotI2dQeu9OWQ-17" style="rounded=0;orthogonalLoop=1;jettySize=auto;html=1;exitX=1;exitY=0.3333333333333333;exitDx=0;exitDy=0;exitPerimeter=0;entryX=0;entryY=0.5;entryDx=0;entryDy=0;endArrow=none;endFill=0;" edge="1" parent="1" source="IQzZQ-pKotI2dQeu9OWQ-11" target="IQzZQ-pKotI2dQeu9OWQ-33">
          <mxGeometry relative="1" as="geometry">
            <mxPoint x="180" y="530" as="sourcePoint" />
          </mxGeometry>
        </mxCell>
        <mxCell id="IQzZQ-pKotI2dQeu9OWQ-18" style="edgeStyle=none;shape=connector;rounded=0;orthogonalLoop=1;jettySize=auto;html=1;strokeColor=default;align=center;verticalAlign=middle;fontFamily=Helvetica;fontSize=11;fontColor=default;labelBackgroundColor=default;endArrow=block;endFill=0;endSize=12;" edge="1" parent="1">
          <mxGeometry relative="1" as="geometry">
            <mxPoint x="165" y="350" as="targetPoint" />
            <mxPoint x="164.92999999999995" y="300" as="sourcePoint" />
          </mxGeometry>
        </mxCell>
        <mxCell id="IQzZQ-pKotI2dQeu9OWQ-19" value="" style="group" vertex="1" connectable="0" parent="1">
          <mxGeometry x="330" y="110" width="120" height="90" as="geometry" />
        </mxCell>
        <mxCell id="IQzZQ-pKotI2dQeu9OWQ-20" value="Регистрация&amp;nbsp;" style="ellipse;whiteSpace=wrap;html=1;" vertex="1" parent="IQzZQ-pKotI2dQeu9OWQ-19">
          <mxGeometry y="10" width="120" height="80" as="geometry" />
        </mxCell>
        <mxCell id="IQzZQ-pKotI2dQeu9OWQ-21" value="1" style="ellipse;whiteSpace=wrap;html=1;aspect=fixed;" vertex="1" parent="IQzZQ-pKotI2dQeu9OWQ-19">
          <mxGeometry y="10" width="30" height="30" as="geometry" />
        </mxCell>
        <mxCell id="IQzZQ-pKotI2dQeu9OWQ-22" value="" style="group" vertex="1" connectable="0" parent="1">
          <mxGeometry x="280" y="210" width="120" height="90" as="geometry" />
        </mxCell>
        <mxCell id="IQzZQ-pKotI2dQeu9OWQ-23" value="Авторизация" style="ellipse;whiteSpace=wrap;html=1;" vertex="1" parent="IQzZQ-pKotI2dQeu9OWQ-22">
          <mxGeometry y="10" width="120" height="80" as="geometry" />
        </mxCell>
        <mxCell id="IQzZQ-pKotI2dQeu9OWQ-24" value="2" style="ellipse;whiteSpace=wrap;html=1;aspect=fixed;" vertex="1" parent="IQzZQ-pKotI2dQeu9OWQ-22">
          <mxGeometry y="10" width="30" height="30" as="geometry" />
        </mxCell>
        <mxCell id="IQzZQ-pKotI2dQeu9OWQ-25" value="" style="group" vertex="1" connectable="0" parent="1">
          <mxGeometry x="610" y="360" width="120" height="90" as="geometry" />
        </mxCell>
        <mxCell id="IQzZQ-pKotI2dQeu9OWQ-26" value="Просмотр ежедневной активности" style="ellipse;whiteSpace=wrap;html=1;" vertex="1" parent="IQzZQ-pKotI2dQeu9OWQ-25">
          <mxGeometry y="10" width="120" height="80" as="geometry" />
        </mxCell>
        <mxCell id="IQzZQ-pKotI2dQeu9OWQ-27" value="8" style="ellipse;whiteSpace=wrap;html=1;aspect=fixed;" vertex="1" parent="IQzZQ-pKotI2dQeu9OWQ-25">
          <mxGeometry x="10" width="30" height="30" as="geometry" />
        </mxCell>
        <mxCell id="IQzZQ-pKotI2dQeu9OWQ-28" value="" style="group" vertex="1" connectable="0" parent="1">
          <mxGeometry x="610" y="460" width="120" height="80" as="geometry" />
        </mxCell>
        <mxCell id="IQzZQ-pKotI2dQeu9OWQ-29" value="Обновление ежедневной активности" style="ellipse;whiteSpace=wrap;html=1;" vertex="1" parent="IQzZQ-pKotI2dQeu9OWQ-28">
          <mxGeometry width="120" height="80" as="geometry" />
        </mxCell>
        <mxCell id="IQzZQ-pKotI2dQeu9OWQ-30" value="9" style="ellipse;whiteSpace=wrap;html=1;aspect=fixed;" vertex="1" parent="IQzZQ-pKotI2dQeu9OWQ-28">
          <mxGeometry y="-10" width="30" height="30" as="geometry" />
        </mxCell>
        <mxCell id="IQzZQ-pKotI2dQeu9OWQ-31" style="edgeStyle=none;shape=connector;rounded=0;orthogonalLoop=1;jettySize=auto;html=1;exitX=0.5;exitY=0;exitDx=0;exitDy=0;strokeColor=default;align=center;verticalAlign=middle;fontFamily=Helvetica;fontSize=11;fontColor=default;labelBackgroundColor=default;endArrow=none;endFill=0;" edge="1" parent="IQzZQ-pKotI2dQeu9OWQ-28" source="IQzZQ-pKotI2dQeu9OWQ-29" target="IQzZQ-pKotI2dQeu9OWQ-29">
          <mxGeometry relative="1" as="geometry" />
        </mxCell>
        <mxCell id="IQzZQ-pKotI2dQeu9OWQ-32" value="" style="group" vertex="1" connectable="0" parent="1">
          <mxGeometry x="264" y="490" width="120" height="90" as="geometry" />
        </mxCell>
        <mxCell id="IQzZQ-pKotI2dQeu9OWQ-33" value="Ввод данных о себе" style="ellipse;whiteSpace=wrap;html=1;" vertex="1" parent="IQzZQ-pKotI2dQeu9OWQ-32">
          <mxGeometry y="10" width="120" height="80" as="geometry" />
        </mxCell>
        <mxCell id="IQzZQ-pKotI2dQeu9OWQ-34" value="10" style="ellipse;whiteSpace=wrap;html=1;aspect=fixed;" vertex="1" parent="IQzZQ-pKotI2dQeu9OWQ-32">
          <mxGeometry x="10" width="30" height="30" as="geometry" />
        </mxCell>
        <mxCell id="IQzZQ-pKotI2dQeu9OWQ-35" value="" style="group" vertex="1" connectable="0" parent="1">
          <mxGeometry x="530" y="530" width="120" height="80" as="geometry" />
        </mxCell>
        <mxCell id="IQzZQ-pKotI2dQeu9OWQ-36" value="Просмотр данных о себе" style="ellipse;whiteSpace=wrap;html=1;" vertex="1" parent="IQzZQ-pKotI2dQeu9OWQ-35">
          <mxGeometry width="120" height="80" as="geometry" />
        </mxCell>
        <mxCell id="IQzZQ-pKotI2dQeu9OWQ-37" value="11" style="ellipse;whiteSpace=wrap;html=1;aspect=fixed;" vertex="1" parent="IQzZQ-pKotI2dQeu9OWQ-35">
          <mxGeometry y="-10" width="30" height="30" as="geometry" />
        </mxCell>
        <mxCell id="IQzZQ-pKotI2dQeu9OWQ-38" value="" style="group" vertex="1" connectable="0" parent="1">
          <mxGeometry x="280" y="583.5" width="120" height="86.5" as="geometry" />
        </mxCell>
        <mxCell id="IQzZQ-pKotI2dQeu9OWQ-39" value="Добавление пользователей в друзья" style="ellipse;whiteSpace=wrap;html=1;" vertex="1" parent="IQzZQ-pKotI2dQeu9OWQ-38">
          <mxGeometry y="6.5" width="120" height="80" as="geometry" />
        </mxCell>
        <mxCell id="IQzZQ-pKotI2dQeu9OWQ-40" value="12" style="ellipse;whiteSpace=wrap;html=1;aspect=fixed;" vertex="1" parent="IQzZQ-pKotI2dQeu9OWQ-38">
          <mxGeometry width="31" height="31" as="geometry" />
        </mxCell>
        <mxCell id="IQzZQ-pKotI2dQeu9OWQ-41" value="" style="group" vertex="1" connectable="0" parent="1">
          <mxGeometry x="264" y="670" width="120" height="90" as="geometry" />
        </mxCell>
        <mxCell id="IQzZQ-pKotI2dQeu9OWQ-42" value="Получение уведомлений" style="ellipse;whiteSpace=wrap;html=1;" vertex="1" parent="IQzZQ-pKotI2dQeu9OWQ-41">
          <mxGeometry y="10" width="120" height="80" as="geometry" />
        </mxCell>
        <mxCell id="IQzZQ-pKotI2dQeu9OWQ-43" value="14" style="ellipse;whiteSpace=wrap;html=1;aspect=fixed;" vertex="1" parent="IQzZQ-pKotI2dQeu9OWQ-41">
          <mxGeometry x="1" width="30" height="30" as="geometry" />
        </mxCell>
        <mxCell id="IQzZQ-pKotI2dQeu9OWQ-44" value="" style="group" vertex="1" connectable="0" parent="1">
          <mxGeometry x="620" y="659" width="120" height="90" as="geometry" />
        </mxCell>
        <mxCell id="IQzZQ-pKotI2dQeu9OWQ-45" value="Запрос на дружбу" style="ellipse;whiteSpace=wrap;html=1;" vertex="1" parent="IQzZQ-pKotI2dQeu9OWQ-44">
          <mxGeometry y="10" width="120" height="80" as="geometry" />
        </mxCell>
        <mxCell id="IQzZQ-pKotI2dQeu9OWQ-46" value="15" style="ellipse;whiteSpace=wrap;html=1;aspect=fixed;" vertex="1" parent="IQzZQ-pKotI2dQeu9OWQ-44">
          <mxGeometry x="1" width="30" height="30" as="geometry" />
        </mxCell>
        <mxCell id="IQzZQ-pKotI2dQeu9OWQ-47" value="" style="group" vertex="1" connectable="0" parent="1">
          <mxGeometry x="520" y="740" width="120" height="80" as="geometry" />
        </mxCell>
        <mxCell id="IQzZQ-pKotI2dQeu9OWQ-48" value="Предложение вызова" style="ellipse;whiteSpace=wrap;html=1;" vertex="1" parent="IQzZQ-pKotI2dQeu9OWQ-47">
          <mxGeometry width="120" height="80" as="geometry" />
        </mxCell>
        <mxCell id="IQzZQ-pKotI2dQeu9OWQ-49" value="16" style="ellipse;whiteSpace=wrap;html=1;aspect=fixed;" vertex="1" parent="IQzZQ-pKotI2dQeu9OWQ-47">
          <mxGeometry width="30" height="30" as="geometry" />
        </mxCell>
        <mxCell id="IQzZQ-pKotI2dQeu9OWQ-50" value="" style="group" vertex="1" connectable="0" parent="1">
          <mxGeometry x="470" y="600" width="120" height="90" as="geometry" />
        </mxCell>
        <mxCell id="IQzZQ-pKotI2dQeu9OWQ-51" value="Поиск пользователей" style="ellipse;whiteSpace=wrap;html=1;" vertex="1" parent="IQzZQ-pKotI2dQeu9OWQ-50">
          <mxGeometry y="10" width="120" height="80" as="geometry" />
        </mxCell>
        <mxCell id="IQzZQ-pKotI2dQeu9OWQ-52" value="13" style="ellipse;whiteSpace=wrap;html=1;aspect=fixed;" vertex="1" parent="IQzZQ-pKotI2dQeu9OWQ-50">
          <mxGeometry x="10" width="31" height="31" as="geometry" />
        </mxCell>
        <mxCell id="IQzZQ-pKotI2dQeu9OWQ-53" value="" style="group" vertex="1" connectable="0" parent="1">
          <mxGeometry x="290" y="300" width="120" height="85" as="geometry" />
        </mxCell>
        <mxCell id="IQzZQ-pKotI2dQeu9OWQ-54" value="Получение вызова" style="ellipse;whiteSpace=wrap;html=1;" vertex="1" parent="IQzZQ-pKotI2dQeu9OWQ-53">
          <mxGeometry y="5" width="120" height="80" as="geometry" />
        </mxCell>
        <mxCell id="IQzZQ-pKotI2dQeu9OWQ-55" value="3" style="ellipse;whiteSpace=wrap;html=1;aspect=fixed;" vertex="1" parent="IQzZQ-pKotI2dQeu9OWQ-53">
          <mxGeometry width="30" height="30" as="geometry" />
        </mxCell>
        <mxCell id="IQzZQ-pKotI2dQeu9OWQ-56" value="" style="group" vertex="1" connectable="0" parent="1">
          <mxGeometry x="510" y="140" width="120" height="90" as="geometry" />
        </mxCell>
        <mxCell id="IQzZQ-pKotI2dQeu9OWQ-57" value="Просмотр списка вызовов" style="ellipse;whiteSpace=wrap;html=1;" vertex="1" parent="IQzZQ-pKotI2dQeu9OWQ-56">
          <mxGeometry y="10" width="120" height="80" as="geometry" />
        </mxCell>
        <mxCell id="IQzZQ-pKotI2dQeu9OWQ-58" value="4" style="ellipse;whiteSpace=wrap;html=1;aspect=fixed;" vertex="1" parent="IQzZQ-pKotI2dQeu9OWQ-56">
          <mxGeometry width="30" height="30" as="geometry" />
        </mxCell>
        <mxCell id="IQzZQ-pKotI2dQeu9OWQ-59" value="" style="group" vertex="1" connectable="0" parent="1">
          <mxGeometry x="580" y="220" width="120" height="84" as="geometry" />
        </mxCell>
        <mxCell id="IQzZQ-pKotI2dQeu9OWQ-60" value="Смена статуса вызова" style="ellipse;whiteSpace=wrap;html=1;" vertex="1" parent="IQzZQ-pKotI2dQeu9OWQ-59">
          <mxGeometry y="4" width="120" height="80" as="geometry" />
        </mxCell>
        <mxCell id="IQzZQ-pKotI2dQeu9OWQ-61" value="5" style="ellipse;whiteSpace=wrap;html=1;aspect=fixed;" vertex="1" parent="IQzZQ-pKotI2dQeu9OWQ-59">
          <mxGeometry width="30" height="30" as="geometry" />
        </mxCell>
        <mxCell id="IQzZQ-pKotI2dQeu9OWQ-62" value="" style="group" vertex="1" connectable="0" parent="1">
          <mxGeometry x="324" y="410" width="120" height="90" as="geometry" />
        </mxCell>
        <mxCell id="IQzZQ-pKotI2dQeu9OWQ-63" value="Ввод ежедневной активности" style="ellipse;whiteSpace=wrap;html=1;" vertex="1" parent="IQzZQ-pKotI2dQeu9OWQ-62">
          <mxGeometry y="10" width="120" height="80" as="geometry" />
        </mxCell>
        <mxCell id="IQzZQ-pKotI2dQeu9OWQ-64" value="7" style="ellipse;whiteSpace=wrap;html=1;aspect=fixed;" vertex="1" parent="IQzZQ-pKotI2dQeu9OWQ-62">
          <mxGeometry width="30" height="30" as="geometry" />
        </mxCell>
        <mxCell id="IQzZQ-pKotI2dQeu9OWQ-65" value="" style="group" vertex="1" connectable="0" parent="1">
          <mxGeometry x="480" y="330" width="120" height="80" as="geometry" />
        </mxCell>
        <mxCell id="IQzZQ-pKotI2dQeu9OWQ-66" value="Возможность бросить вызов другу" style="ellipse;whiteSpace=wrap;html=1;" vertex="1" parent="IQzZQ-pKotI2dQeu9OWQ-65">
          <mxGeometry width="120" height="80" as="geometry" />
        </mxCell>
        <mxCell id="IQzZQ-pKotI2dQeu9OWQ-67" value="6" style="ellipse;whiteSpace=wrap;html=1;aspect=fixed;" vertex="1" parent="IQzZQ-pKotI2dQeu9OWQ-65">
          <mxGeometry x="4" width="30" height="30" as="geometry" />
        </mxCell>
        <mxCell id="IQzZQ-pKotI2dQeu9OWQ-68" value="" style="endArrow=none;html=1;rounded=0;exitX=1;exitY=0.3333333333333333;exitDx=0;exitDy=0;exitPerimeter=0;entryX=0;entryY=0.5;entryDx=0;entryDy=0;" edge="1" parent="1" source="IQzZQ-pKotI2dQeu9OWQ-11" target="IQzZQ-pKotI2dQeu9OWQ-66">
          <mxGeometry width="50" height="50" relative="1" as="geometry">
            <mxPoint x="260" y="390" as="sourcePoint" />
            <mxPoint x="310" y="340" as="targetPoint" />
          </mxGeometry>
        </mxCell>
        <mxCell id="IQzZQ-pKotI2dQeu9OWQ-69" style="rounded=0;orthogonalLoop=1;jettySize=auto;html=1;exitX=1;exitY=0.5;exitDx=0;exitDy=0;entryX=0;entryY=0.5;entryDx=0;entryDy=0;endArrow=none;endFill=0;dashed=1;startArrow=open;startFill=0;" edge="1" parent="1" source="IQzZQ-pKotI2dQeu9OWQ-63" target="IQzZQ-pKotI2dQeu9OWQ-26">
          <mxGeometry relative="1" as="geometry">
            <mxPoint x="532" y="562" as="sourcePoint" />
            <mxPoint x="700" y="480" as="targetPoint" />
          </mxGeometry>
        </mxCell>
        <mxCell id="IQzZQ-pKotI2dQeu9OWQ-70" value="extend" style="edgeLabel;html=1;align=center;verticalAlign=middle;resizable=0;points=[];fontFamily=Helvetica;fontSize=11;fontColor=default;labelBackgroundColor=default;" vertex="1" connectable="0" parent="IQzZQ-pKotI2dQeu9OWQ-69">
          <mxGeometry x="0.0209" y="1" relative="1" as="geometry">
            <mxPoint x="-2" y="1" as="offset" />
          </mxGeometry>
        </mxCell>
        <mxCell id="IQzZQ-pKotI2dQeu9OWQ-71" style="rounded=0;orthogonalLoop=1;jettySize=auto;html=1;exitX=0;exitY=0.5;exitDx=0;exitDy=0;entryX=1;entryY=0.5;entryDx=0;entryDy=0;endArrow=none;endFill=0;dashed=1;startArrow=open;startFill=0;" edge="1" parent="1" source="IQzZQ-pKotI2dQeu9OWQ-29" target="IQzZQ-pKotI2dQeu9OWQ-63">
          <mxGeometry relative="1" as="geometry">
            <mxPoint x="454" y="470" as="sourcePoint" />
            <mxPoint x="620" y="420" as="targetPoint" />
          </mxGeometry>
        </mxCell>
        <mxCell id="IQzZQ-pKotI2dQeu9OWQ-72" value="include" style="edgeLabel;html=1;align=center;verticalAlign=middle;resizable=0;points=[];fontFamily=Helvetica;fontSize=11;fontColor=default;labelBackgroundColor=default;" vertex="1" connectable="0" parent="IQzZQ-pKotI2dQeu9OWQ-71">
          <mxGeometry x="0.0209" y="1" relative="1" as="geometry">
            <mxPoint x="-2" y="1" as="offset" />
          </mxGeometry>
        </mxCell>
        <mxCell id="IQzZQ-pKotI2dQeu9OWQ-73" style="edgeStyle=none;shape=connector;rounded=0;orthogonalLoop=1;jettySize=auto;html=1;exitX=0;exitY=0.5;exitDx=0;exitDy=0;strokeColor=default;align=center;verticalAlign=middle;fontFamily=Helvetica;fontSize=11;fontColor=default;labelBackgroundColor=default;endArrow=open;endFill=0;dashed=1;entryX=1;entryY=0.5;entryDx=0;entryDy=0;" edge="1" parent="1" source="IQzZQ-pKotI2dQeu9OWQ-36" target="IQzZQ-pKotI2dQeu9OWQ-33">
          <mxGeometry relative="1" as="geometry">
            <mxPoint x="436" y="580" as="targetPoint" />
            <mxPoint x="544" y="447" as="sourcePoint" />
          </mxGeometry>
        </mxCell>
        <mxCell id="IQzZQ-pKotI2dQeu9OWQ-74" value="extend" style="edgeLabel;html=1;align=center;verticalAlign=middle;resizable=0;points=[];" vertex="1" connectable="0" parent="IQzZQ-pKotI2dQeu9OWQ-73">
          <mxGeometry x="0.052" y="-1" relative="1" as="geometry">
            <mxPoint as="offset" />
          </mxGeometry>
        </mxCell>
        <mxCell id="IQzZQ-pKotI2dQeu9OWQ-75" value="" style="group" vertex="1" connectable="0" parent="1">
          <mxGeometry x="290" y="780" width="120" height="90" as="geometry" />
        </mxCell>
        <mxCell id="IQzZQ-pKotI2dQeu9OWQ-76" value="Ведение статистики" style="ellipse;whiteSpace=wrap;html=1;" vertex="1" parent="IQzZQ-pKotI2dQeu9OWQ-75">
          <mxGeometry y="10" width="120" height="80" as="geometry" />
        </mxCell>
        <mxCell id="IQzZQ-pKotI2dQeu9OWQ-77" value="17" style="ellipse;whiteSpace=wrap;html=1;aspect=fixed;" vertex="1" parent="IQzZQ-pKotI2dQeu9OWQ-75">
          <mxGeometry x="1" width="30" height="30" as="geometry" />
        </mxCell>
        <mxCell id="IQzZQ-pKotI2dQeu9OWQ-78" value="" style="group" vertex="1" connectable="0" parent="1">
          <mxGeometry x="620" y="800" width="120" height="90" as="geometry" />
        </mxCell>
        <mxCell id="IQzZQ-pKotI2dQeu9OWQ-79" value="Просмотр глобальной статистики" style="ellipse;whiteSpace=wrap;html=1;" vertex="1" parent="IQzZQ-pKotI2dQeu9OWQ-78">
          <mxGeometry y="10" width="120" height="80" as="geometry" />
        </mxCell>
        <mxCell id="IQzZQ-pKotI2dQeu9OWQ-80" value="18" style="ellipse;whiteSpace=wrap;html=1;aspect=fixed;" vertex="1" parent="IQzZQ-pKotI2dQeu9OWQ-78">
          <mxGeometry x="1" width="30" height="30" as="geometry" />
        </mxCell>
        <mxCell id="IQzZQ-pKotI2dQeu9OWQ-81" style="rounded=0;orthogonalLoop=1;jettySize=auto;html=1;exitX=0;exitY=0.5;exitDx=0;exitDy=0;entryX=1;entryY=0.5;entryDx=0;entryDy=0;endArrow=none;endFill=0;dashed=1;startArrow=open;startFill=0;" edge="1" parent="1" source="IQzZQ-pKotI2dQeu9OWQ-45" target="IQzZQ-pKotI2dQeu9OWQ-42">
          <mxGeometry relative="1" as="geometry">
            <mxPoint x="533" y="820" as="sourcePoint" />
            <mxPoint x="367" y="780" as="targetPoint" />
          </mxGeometry>
        </mxCell>
        <mxCell id="IQzZQ-pKotI2dQeu9OWQ-82" value="include" style="edgeLabel;html=1;align=center;verticalAlign=middle;resizable=0;points=[];fontFamily=Helvetica;fontSize=11;fontColor=default;labelBackgroundColor=default;" vertex="1" connectable="0" parent="IQzZQ-pKotI2dQeu9OWQ-81">
          <mxGeometry x="0.0209" y="1" relative="1" as="geometry">
            <mxPoint x="-2" y="1" as="offset" />
          </mxGeometry>
        </mxCell>
        <mxCell id="IQzZQ-pKotI2dQeu9OWQ-83" style="rounded=0;orthogonalLoop=1;jettySize=auto;html=1;exitX=0;exitY=0.5;exitDx=0;exitDy=0;entryX=1;entryY=0.5;entryDx=0;entryDy=0;endArrow=none;endFill=0;dashed=1;startArrow=open;startFill=0;" edge="1" parent="1" source="IQzZQ-pKotI2dQeu9OWQ-48" target="IQzZQ-pKotI2dQeu9OWQ-42">
          <mxGeometry relative="1" as="geometry">
            <mxPoint x="530" y="750" as="sourcePoint" />
            <mxPoint x="394" y="730" as="targetPoint" />
          </mxGeometry>
        </mxCell>
        <mxCell id="IQzZQ-pKotI2dQeu9OWQ-84" value="include" style="edgeLabel;html=1;align=center;verticalAlign=middle;resizable=0;points=[];fontFamily=Helvetica;fontSize=11;fontColor=default;labelBackgroundColor=default;" vertex="1" connectable="0" parent="IQzZQ-pKotI2dQeu9OWQ-83">
          <mxGeometry x="0.0209" y="1" relative="1" as="geometry">
            <mxPoint x="-2" y="1" as="offset" />
          </mxGeometry>
        </mxCell>
        <mxCell id="IQzZQ-pKotI2dQeu9OWQ-85" value="" style="endArrow=none;html=1;rounded=0;exitX=1;exitY=0.3333333333333333;exitDx=0;exitDy=0;exitPerimeter=0;entryX=0;entryY=0.5;entryDx=0;entryDy=0;" edge="1" parent="1" source="IQzZQ-pKotI2dQeu9OWQ-9" target="IQzZQ-pKotI2dQeu9OWQ-76">
          <mxGeometry width="50" height="50" relative="1" as="geometry">
            <mxPoint x="260" y="950" as="sourcePoint" />
            <mxPoint x="310" y="900" as="targetPoint" />
          </mxGeometry>
        </mxCell>
        <mxCell id="IQzZQ-pKotI2dQeu9OWQ-86" value="" style="group" vertex="1" connectable="0" parent="1">
          <mxGeometry x="630" y="890" width="120" height="90" as="geometry" />
        </mxCell>
        <mxCell id="IQzZQ-pKotI2dQeu9OWQ-87" value="Просмотр статистики конкретного пользователя" style="ellipse;whiteSpace=wrap;html=1;" vertex="1" parent="IQzZQ-pKotI2dQeu9OWQ-86">
          <mxGeometry y="10" width="120" height="80" as="geometry" />
        </mxCell>
        <mxCell id="IQzZQ-pKotI2dQeu9OWQ-88" value="19" style="ellipse;whiteSpace=wrap;html=1;aspect=fixed;" vertex="1" parent="IQzZQ-pKotI2dQeu9OWQ-86">
          <mxGeometry x="1" width="30" height="30" as="geometry" />
        </mxCell>
        <mxCell id="IQzZQ-pKotI2dQeu9OWQ-89" style="rounded=0;orthogonalLoop=1;jettySize=auto;html=1;exitX=0;exitY=0.5;exitDx=0;exitDy=0;entryX=1;entryY=0.5;entryDx=0;entryDy=0;endArrow=none;endFill=0;dashed=1;startArrow=open;startFill=0;" edge="1" parent="1" source="IQzZQ-pKotI2dQeu9OWQ-87" target="IQzZQ-pKotI2dQeu9OWQ-76">
          <mxGeometry relative="1" as="geometry">
            <mxPoint x="530" y="790" as="sourcePoint" />
            <mxPoint x="394" y="730" as="targetPoint" />
          </mxGeometry>
        </mxCell>
        <mxCell id="IQzZQ-pKotI2dQeu9OWQ-90" value="include" style="edgeLabel;html=1;align=center;verticalAlign=middle;resizable=0;points=[];fontFamily=Helvetica;fontSize=11;fontColor=default;labelBackgroundColor=default;" vertex="1" connectable="0" parent="IQzZQ-pKotI2dQeu9OWQ-89">
          <mxGeometry x="0.0209" y="1" relative="1" as="geometry">
            <mxPoint x="-2" y="1" as="offset" />
          </mxGeometry>
        </mxCell>
        <mxCell id="IQzZQ-pKotI2dQeu9OWQ-91" style="rounded=0;orthogonalLoop=1;jettySize=auto;html=1;exitX=0;exitY=0.5;exitDx=0;exitDy=0;entryX=1;entryY=0.5;entryDx=0;entryDy=0;endArrow=none;endFill=0;dashed=1;startArrow=open;startFill=0;" edge="1" parent="1" source="IQzZQ-pKotI2dQeu9OWQ-79" target="IQzZQ-pKotI2dQeu9OWQ-76">
          <mxGeometry relative="1" as="geometry">
            <mxPoint x="530" y="820" as="sourcePoint" />
            <mxPoint x="394" y="760" as="targetPoint" />
          </mxGeometry>
        </mxCell>
        <mxCell id="IQzZQ-pKotI2dQeu9OWQ-92" value="include" style="edgeLabel;html=1;align=center;verticalAlign=middle;resizable=0;points=[];fontFamily=Helvetica;fontSize=11;fontColor=default;labelBackgroundColor=default;" vertex="1" connectable="0" parent="IQzZQ-pKotI2dQeu9OWQ-91">
          <mxGeometry x="0.0209" y="1" relative="1" as="geometry">
            <mxPoint x="-2" y="1" as="offset" />
          </mxGeometry>
        </mxCell>
        <mxCell id="IQzZQ-pKotI2dQeu9OWQ-93" value="" style="group" vertex="1" connectable="0" parent="1">
          <mxGeometry x="264" y="870" width="120" height="90" as="geometry" />
        </mxCell>
        <mxCell id="IQzZQ-pKotI2dQeu9OWQ-94" value="Управление активностями" style="ellipse;whiteSpace=wrap;html=1;" vertex="1" parent="IQzZQ-pKotI2dQeu9OWQ-93">
          <mxGeometry y="10" width="120" height="80" as="geometry" />
        </mxCell>
        <mxCell id="IQzZQ-pKotI2dQeu9OWQ-95" value="20" style="ellipse;whiteSpace=wrap;html=1;aspect=fixed;" vertex="1" parent="IQzZQ-pKotI2dQeu9OWQ-93">
          <mxGeometry x="1" width="30" height="30" as="geometry" />
        </mxCell>
        <mxCell id="IQzZQ-pKotI2dQeu9OWQ-96" value="" style="group" vertex="1" connectable="0" parent="1">
          <mxGeometry x="470" y="900" width="120" height="90" as="geometry" />
        </mxCell>
        <mxCell id="IQzZQ-pKotI2dQeu9OWQ-97" value="Просмотр&amp;nbsp; активностей" style="ellipse;whiteSpace=wrap;html=1;" vertex="1" parent="IQzZQ-pKotI2dQeu9OWQ-96">
          <mxGeometry y="10" width="120" height="80" as="geometry" />
        </mxCell>
        <mxCell id="IQzZQ-pKotI2dQeu9OWQ-98" value="21" style="ellipse;whiteSpace=wrap;html=1;aspect=fixed;" vertex="1" parent="IQzZQ-pKotI2dQeu9OWQ-96">
          <mxGeometry x="1" width="30" height="30" as="geometry" />
        </mxCell>
        <mxCell id="IQzZQ-pKotI2dQeu9OWQ-99" value="" style="endArrow=none;html=1;rounded=0;exitX=1;exitY=0.3333333333333333;exitDx=0;exitDy=0;exitPerimeter=0;entryX=0;entryY=0.5;entryDx=0;entryDy=0;" edge="1" parent="1" source="IQzZQ-pKotI2dQeu9OWQ-9" target="IQzZQ-pKotI2dQeu9OWQ-94">
          <mxGeometry width="50" height="50" relative="1" as="geometry">
            <mxPoint x="190" y="800" as="sourcePoint" />
            <mxPoint x="300" y="840" as="targetPoint" />
          </mxGeometry>
        </mxCell>
        <mxCell id="IQzZQ-pKotI2dQeu9OWQ-100" style="rounded=0;orthogonalLoop=1;jettySize=auto;html=1;exitX=0;exitY=0.5;exitDx=0;exitDy=0;entryX=1;entryY=0.5;entryDx=0;entryDy=0;endArrow=none;endFill=0;dashed=1;startArrow=open;startFill=0;" edge="1" parent="1" source="IQzZQ-pKotI2dQeu9OWQ-97" target="IQzZQ-pKotI2dQeu9OWQ-94">
          <mxGeometry relative="1" as="geometry">
            <mxPoint x="630" y="860" as="sourcePoint" />
            <mxPoint x="420" y="840" as="targetPoint" />
          </mxGeometry>
        </mxCell>
        <mxCell id="IQzZQ-pKotI2dQeu9OWQ-101" value="include" style="edgeLabel;html=1;align=center;verticalAlign=middle;resizable=0;points=[];fontFamily=Helvetica;fontSize=11;fontColor=default;labelBackgroundColor=default;" vertex="1" connectable="0" parent="IQzZQ-pKotI2dQeu9OWQ-100">
          <mxGeometry x="0.0209" y="1" relative="1" as="geometry">
            <mxPoint x="-2" y="1" as="offset" />
          </mxGeometry>
        </mxCell>
        <mxCell id="IQzZQ-pKotI2dQeu9OWQ-102" value="" style="group" vertex="1" connectable="0" parent="1">
          <mxGeometry x="500" y="1000" width="120" height="90" as="geometry" />
        </mxCell>
        <mxCell id="IQzZQ-pKotI2dQeu9OWQ-103" value="Добавление/удаление активностей" style="ellipse;whiteSpace=wrap;html=1;" vertex="1" parent="IQzZQ-pKotI2dQeu9OWQ-102">
          <mxGeometry y="10" width="120" height="80" as="geometry" />
        </mxCell>
        <mxCell id="IQzZQ-pKotI2dQeu9OWQ-104" value="22" style="ellipse;whiteSpace=wrap;html=1;aspect=fixed;" vertex="1" parent="IQzZQ-pKotI2dQeu9OWQ-102">
          <mxGeometry x="1" width="30" height="30" as="geometry" />
        </mxCell>
        <mxCell id="IQzZQ-pKotI2dQeu9OWQ-105" style="rounded=0;orthogonalLoop=1;jettySize=auto;html=1;exitX=0;exitY=0.5;exitDx=0;exitDy=0;entryX=1;entryY=0.5;entryDx=0;entryDy=0;endArrow=none;endFill=0;dashed=1;startArrow=open;startFill=0;" edge="1" parent="1" source="IQzZQ-pKotI2dQeu9OWQ-103" target="IQzZQ-pKotI2dQeu9OWQ-94">
          <mxGeometry relative="1" as="geometry">
            <mxPoint x="460" y="970" as="sourcePoint" />
            <mxPoint x="394" y="930" as="targetPoint" />
          </mxGeometry>
        </mxCell>
        <mxCell id="IQzZQ-pKotI2dQeu9OWQ-106" value="include" style="edgeLabel;html=1;align=center;verticalAlign=middle;resizable=0;points=[];fontFamily=Helvetica;fontSize=11;fontColor=default;labelBackgroundColor=default;" vertex="1" connectable="0" parent="IQzZQ-pKotI2dQeu9OWQ-105">
          <mxGeometry x="0.0209" y="1" relative="1" as="geometry">
            <mxPoint x="-2" y="1" as="offset" />
          </mxGeometry>
        </mxCell>
        <mxCell id="IQzZQ-pKotI2dQeu9OWQ-107" value="" style="group" vertex="1" connectable="0" parent="1">
          <mxGeometry x="240" y="960" width="120" height="90" as="geometry" />
        </mxCell>
        <mxCell id="IQzZQ-pKotI2dQeu9OWQ-108" value="Управление пользователями" style="ellipse;whiteSpace=wrap;html=1;" vertex="1" parent="IQzZQ-pKotI2dQeu9OWQ-107">
          <mxGeometry y="10" width="120" height="80" as="geometry" />
        </mxCell>
        <mxCell id="IQzZQ-pKotI2dQeu9OWQ-109" value="23" style="ellipse;whiteSpace=wrap;html=1;aspect=fixed;" vertex="1" parent="IQzZQ-pKotI2dQeu9OWQ-107">
          <mxGeometry x="1" width="30" height="30" as="geometry" />
        </mxCell>
        <mxCell id="IQzZQ-pKotI2dQeu9OWQ-110" value="" style="group" vertex="1" connectable="0" parent="1">
          <mxGeometry x="250" y="1080" width="120" height="90" as="geometry" />
        </mxCell>
        <mxCell id="IQzZQ-pKotI2dQeu9OWQ-111" value="Просмотр пользователей" style="ellipse;whiteSpace=wrap;html=1;" vertex="1" parent="IQzZQ-pKotI2dQeu9OWQ-110">
          <mxGeometry y="10" width="120" height="80" as="geometry" />
        </mxCell>
        <mxCell id="IQzZQ-pKotI2dQeu9OWQ-112" value="24" style="ellipse;whiteSpace=wrap;html=1;aspect=fixed;" vertex="1" parent="IQzZQ-pKotI2dQeu9OWQ-110">
          <mxGeometry x="1" width="30" height="30" as="geometry" />
        </mxCell>
        <mxCell id="IQzZQ-pKotI2dQeu9OWQ-113" value="" style="group" vertex="1" connectable="0" parent="1">
          <mxGeometry x="430" y="1070" width="120" height="90" as="geometry" />
        </mxCell>
        <mxCell id="IQzZQ-pKotI2dQeu9OWQ-114" value="Поиск пользователей" style="ellipse;whiteSpace=wrap;html=1;" vertex="1" parent="IQzZQ-pKotI2dQeu9OWQ-113">
          <mxGeometry y="10" width="120" height="80" as="geometry" />
        </mxCell>
        <mxCell id="IQzZQ-pKotI2dQeu9OWQ-115" value="25" style="ellipse;whiteSpace=wrap;html=1;aspect=fixed;" vertex="1" parent="IQzZQ-pKotI2dQeu9OWQ-113">
          <mxGeometry x="1" width="30" height="30" as="geometry" />
        </mxCell>
        <mxCell id="IQzZQ-pKotI2dQeu9OWQ-116" style="rounded=0;orthogonalLoop=1;jettySize=auto;html=1;exitX=0;exitY=0.5;exitDx=0;exitDy=0;entryX=1;entryY=0.5;entryDx=0;entryDy=0;endArrow=none;endFill=0;dashed=1;startArrow=open;startFill=0;" edge="1" parent="1" source="IQzZQ-pKotI2dQeu9OWQ-114" target="IQzZQ-pKotI2dQeu9OWQ-108">
          <mxGeometry relative="1" as="geometry">
            <mxPoint x="510" y="1060" as="sourcePoint" />
            <mxPoint x="394" y="930" as="targetPoint" />
          </mxGeometry>
        </mxCell>
        <mxCell id="IQzZQ-pKotI2dQeu9OWQ-117" value="include" style="edgeLabel;html=1;align=center;verticalAlign=middle;resizable=0;points=[];fontFamily=Helvetica;fontSize=11;fontColor=default;labelBackgroundColor=default;" vertex="1" connectable="0" parent="IQzZQ-pKotI2dQeu9OWQ-116">
          <mxGeometry x="0.0209" y="1" relative="1" as="geometry">
            <mxPoint x="-2" y="1" as="offset" />
          </mxGeometry>
        </mxCell>
        <mxCell id="IQzZQ-pKotI2dQeu9OWQ-118" style="rounded=0;orthogonalLoop=1;jettySize=auto;html=1;exitX=1;exitY=0;exitDx=0;exitDy=0;entryX=1;entryY=0.5;entryDx=0;entryDy=0;endArrow=none;endFill=0;dashed=1;startArrow=open;startFill=0;" edge="1" parent="1" source="IQzZQ-pKotI2dQeu9OWQ-111" target="IQzZQ-pKotI2dQeu9OWQ-108">
          <mxGeometry relative="1" as="geometry">
            <mxPoint x="394" y="1100" as="sourcePoint" />
            <mxPoint x="370" y="1020" as="targetPoint" />
          </mxGeometry>
        </mxCell>
        <mxCell id="IQzZQ-pKotI2dQeu9OWQ-119" value="include" style="edgeLabel;html=1;align=center;verticalAlign=middle;resizable=0;points=[];fontFamily=Helvetica;fontSize=11;fontColor=default;labelBackgroundColor=default;" vertex="1" connectable="0" parent="IQzZQ-pKotI2dQeu9OWQ-118">
          <mxGeometry x="0.0209" y="1" relative="1" as="geometry">
            <mxPoint x="-2" y="1" as="offset" />
          </mxGeometry>
        </mxCell>
        <mxCell id="IQzZQ-pKotI2dQeu9OWQ-120" style="edgeStyle=none;shape=connector;rounded=0;orthogonalLoop=1;jettySize=auto;html=1;strokeColor=default;align=center;verticalAlign=middle;fontFamily=Helvetica;fontSize=11;fontColor=default;labelBackgroundColor=default;endArrow=block;endFill=0;endSize=12;entryX=0.091;entryY=0.435;entryDx=0;entryDy=0;entryPerimeter=0;" edge="1" parent="1">
          <mxGeometry relative="1" as="geometry">
            <mxPoint x="164.4699999999999" y="610.0000000000002" as="targetPoint" />
            <mxPoint x="164.40999999999997" y="669.75" as="sourcePoint" />
          </mxGeometry>
        </mxCell>
        <mxCell id="IQzZQ-pKotI2dQeu9OWQ-121" style="edgeStyle=none;shape=connector;rounded=0;orthogonalLoop=1;jettySize=auto;html=1;exitX=1;exitY=0.3333333333333333;exitDx=0;exitDy=0;exitPerimeter=0;entryX=0;entryY=0.5;entryDx=0;entryDy=0;strokeColor=default;align=center;verticalAlign=middle;fontFamily=Helvetica;fontSize=11;fontColor=default;labelBackgroundColor=default;endArrow=none;endFill=0;" edge="1" parent="1" source="IQzZQ-pKotI2dQeu9OWQ-11" target="IQzZQ-pKotI2dQeu9OWQ-63">
          <mxGeometry relative="1" as="geometry">
            <mxPoint x="190" y="450" as="sourcePoint" />
            <mxPoint x="300" y="355" as="targetPoint" />
          </mxGeometry>
        </mxCell>
        <mxCell id="IQzZQ-pKotI2dQeu9OWQ-122" style="rounded=0;orthogonalLoop=1;jettySize=auto;html=1;exitX=0;exitY=0.5;exitDx=0;exitDy=0;entryX=1;entryY=0.5;entryDx=0;entryDy=0;endArrow=none;endFill=0;dashed=1;startArrow=open;startFill=0;" edge="1" parent="1" source="IQzZQ-pKotI2dQeu9OWQ-51" target="IQzZQ-pKotI2dQeu9OWQ-39">
          <mxGeometry relative="1" as="geometry">
            <mxPoint x="620" y="510" as="sourcePoint" />
            <mxPoint x="454" y="470" as="targetPoint" />
          </mxGeometry>
        </mxCell>
        <mxCell id="IQzZQ-pKotI2dQeu9OWQ-123" value="include" style="edgeLabel;html=1;align=center;verticalAlign=middle;resizable=0;points=[];fontFamily=Helvetica;fontSize=11;fontColor=default;labelBackgroundColor=default;" vertex="1" connectable="0" parent="IQzZQ-pKotI2dQeu9OWQ-122">
          <mxGeometry x="0.0209" y="1" relative="1" as="geometry">
            <mxPoint x="-2" y="1" as="offset" />
          </mxGeometry>
        </mxCell>
        <mxCell id="IQzZQ-pKotI2dQeu9OWQ-124" value="" style="endArrow=none;html=1;rounded=0;exitX=1;exitY=0.3333333333333333;exitDx=0;exitDy=0;exitPerimeter=0;entryX=0;entryY=0.5;entryDx=0;entryDy=0;" edge="1" parent="1" source="IQzZQ-pKotI2dQeu9OWQ-9" target="IQzZQ-pKotI2dQeu9OWQ-108">
          <mxGeometry width="50" height="50" relative="1" as="geometry">
            <mxPoint x="190" y="800" as="sourcePoint" />
            <mxPoint x="274" y="930" as="targetPoint" />
          </mxGeometry>
        </mxCell>
      </root>
    </mxGraphModel>
  </diagram>
</mxfile>
